<svg xmlns="http://www.w3.org/2000/svg" xmlns:xlink="http://www.w3.org/1999/xlink" width="2000" zoomAndPan="magnify" viewBox="0 0 1500 1499.999933" height="2000" preserveAspectRatio="xMidYMid meet" version="1.0"><defs><g/><clipPath id="3aad8233c3"><rect x="0" width="688" y="0" height="191"/></clipPath><clipPath id="ae4960f212"><rect x="0" width="494" y="0" height="198"/></clipPath></defs><rect x="-150" width="1800" fill="#ffffff" y="-149.999993" height="1799.99992" fill-opacity="1"/><rect x="-150" width="1800" fill="#0a192f" y="-149.999993" height="1799.99992" fill-opacity="1"/><path fill="#3a86ff" d="M 951.160156 801.519531 C 964.082031 779.152344 956.414062 750.546875 934.046875 737.636719 C 911.675781 724.71875 883.074219 732.386719 870.160156 754.757812 C 867.597656 759.191406 865.851562 763.867188 864.863281 768.625 L 803.628906 768.625 C 801.582031 758.871094 796.441406 749.8125 788.632812 743.003906 L 819.222656 690.019531 C 839.953125 697.125 863.46875 688.832031 874.835938 669.144531 C 887.746094 646.773438 880.089844 618.167969 857.710938 605.257812 C 845.0625 597.953125 830.417969 597.234375 817.742188 602.035156 L 787.515625 549.679688 C 791.816406 546.179688 795.570312 541.851562 798.507812 536.765625 C 811.425781 514.398438 803.761719 485.796875 781.394531 472.882812 C 759.023438 459.96875 730.421875 467.632812 717.503906 489.996094 C 704.59375 512.367188 712.257812 540.96875 734.625 553.882812 C 746.261719 560.601562 759.59375 561.75 771.519531 558.148438 L 802.378906 611.601562 C 799.09375 614.671875 796.199219 618.277344 793.835938 622.375 C 791.113281 627.09375 789.308594 632.089844 788.351562 637.15625 L 727.476562 637.15625 C 725.03125 624.242188 717.1875 612.429688 704.910156 605.34375 C 682.539062 592.429688 653.941406 600.097656 641.027344 622.460938 C 629.664062 642.152344 634.230469 666.664062 650.746094 681.066406 L 620.164062 734.050781 C 599.433594 726.945312 575.917969 735.238281 564.550781 754.925781 C 551.640625 777.292969 559.296875 805.898438 581.667969 818.808594 C 604.039062 831.726562 632.636719 824.0625 645.554688 801.695312 C 656.917969 782.003906 652.34375 757.492188 635.828125 743.089844 L 666.414062 690.105469 C 676.492188 693.5625 687.238281 693.375 696.914062 690.003906 L 727.363281 742.746094 C 723.464844 746.089844 720.066406 750.140625 717.351562 754.839844 C 704.4375 777.210938 712.101562 805.8125 734.472656 818.726562 C 756.839844 831.640625 785.441406 823.972656 798.355469 801.605469 C 801.097656 796.851562 802.914062 791.816406 803.851562 786.707031 L 864.691406 786.707031 C 867.117188 799.664062 874.964844 811.519531 887.277344 818.632812 C 909.644531 831.546875 938.246094 823.886719 951.160156 801.519531 Z M 788.542969 655.242188 C 790.578125 665.035156 795.71875 674.140625 803.558594 680.976562 L 772.96875 733.960938 C 763.117188 730.582031 752.625 730.6875 743.113281 733.847656 L 712.527344 680.875 C 716.207031 677.613281 719.4375 673.71875 722.03125 669.226562 C 724.617188 664.753906 726.371094 660.03125 727.347656 655.242188 Z M 788.542969 655.242188 " fill-opacity="1" fill-rule="nonzero"/><g transform="matrix(1, 0, 0, 1, 161, 847)"><g clip-path="url(#3aad8233c3)"><g fill="#ccd6f6" fill-opacity="1"><g transform="translate(1.489716, 150.977097)"><g><path d="M 96.8125 -95.796875 L 61.59375 -95.796875 L 61.59375 0 L 37.90625 0 L 37.90625 -95.796875 L 3.15625 -95.796875 L 3.15625 -114.984375 L 96.8125 -114.984375 Z M 96.8125 -95.796875 "/></g></g></g><g fill="#ccd6f6" fill-opacity="1"><g transform="translate(109.626892, 150.977097)"><g><path d="M 79.453125 -49.828125 L 33.953125 -49.828125 L 33.953125 -19.03125 L 87.34375 -19.03125 L 87.34375 0 L 10.265625 0 L 10.265625 -114.984375 L 87.1875 -114.984375 L 87.1875 -95.796875 L 33.953125 -95.796875 L 33.953125 -68.390625 L 79.453125 -68.390625 Z M 79.453125 -49.828125 "/></g></g></g><g fill="#ccd6f6" fill-opacity="1"><g transform="translate(208.68292, 150.977097)"><g><path d="M 100.53125 -38.296875 C 99.632812 -25.929688 95.066406 -16.191406 86.828125 -9.078125 C 78.585938 -1.972656 67.726562 1.578125 54.25 1.578125 C 39.507812 1.578125 27.914062 -3.378906 19.46875 -13.296875 C 11.019531 -23.222656 6.796875 -36.847656 6.796875 -54.171875 L 6.796875 -61.203125 C 6.796875 -72.253906 8.742188 -81.992188 12.640625 -90.421875 C 16.535156 -98.847656 22.101562 -105.3125 29.34375 -109.8125 C 36.582031 -114.3125 44.988281 -116.5625 54.5625 -116.5625 C 67.832031 -116.5625 78.519531 -113.003906 86.625 -105.890625 C 94.738281 -98.785156 99.425781 -88.8125 100.6875 -75.96875 L 77 -75.96875 C 76.414062 -83.394531 74.347656 -88.78125 70.796875 -92.125 C 67.242188 -95.46875 61.832031 -97.140625 54.5625 -97.140625 C 46.664062 -97.140625 40.753906 -94.304688 36.828125 -88.640625 C 32.910156 -82.984375 30.898438 -74.207031 30.796875 -62.3125 L 30.796875 -53.625 C 30.796875 -41.195312 32.675781 -32.113281 36.4375 -26.375 C 40.207031 -20.632812 46.144531 -17.765625 54.25 -17.765625 C 61.570312 -17.765625 67.035156 -19.4375 70.640625 -22.78125 C 74.242188 -26.125 76.3125 -31.296875 76.84375 -38.296875 Z M 100.53125 -38.296875 "/></g></g></g><g fill="#ccd6f6" fill-opacity="1"><g transform="translate(322.58465, 150.977097)"><g><path d="M 103.84375 0 L 80.15625 0 L 80.15625 -49.28125 L 33.953125 -49.28125 L 33.953125 0 L 10.265625 0 L 10.265625 -114.984375 L 33.953125 -114.984375 L 33.953125 -68.390625 L 80.15625 -68.390625 L 80.15625 -114.984375 L 103.84375 -114.984375 Z M 103.84375 0 "/></g></g></g><g fill="#ccd6f6" fill-opacity="1"><g transform="translate(444.935794, 150.977097)"><g><path d="M 103.765625 0 L 80.078125 0 L 33.953125 -75.65625 L 33.953125 0 L 10.265625 0 L 10.265625 -114.984375 L 33.953125 -114.984375 L 80.15625 -39.171875 L 80.15625 -114.984375 L 103.765625 -114.984375 Z M 103.765625 0 "/></g></g></g><g fill="#ccd6f6" fill-opacity="1"><g transform="translate(567.207947, 150.977097)"><g><path d="M 104.71875 -54.890625 C 104.71875 -43.566406 102.71875 -33.640625 98.71875 -25.109375 C 94.71875 -16.578125 88.988281 -9.992188 81.53125 -5.359375 C 74.082031 -0.734375 65.539062 1.578125 55.90625 1.578125 C 46.382812 1.578125 37.882812 -0.707031 30.40625 -5.28125 C 22.925781 -9.863281 17.132812 -16.40625 13.03125 -24.90625 C 8.925781 -33.414062 6.847656 -43.195312 6.796875 -54.25 L 6.796875 -59.9375 C 6.796875 -71.257812 8.832031 -81.222656 12.90625 -89.828125 C 16.988281 -98.441406 22.753906 -105.050781 30.203125 -109.65625 C 37.648438 -114.257812 46.164062 -116.5625 55.75 -116.5625 C 65.332031 -116.5625 73.847656 -114.257812 81.296875 -109.65625 C 88.742188 -105.050781 94.507812 -98.441406 98.59375 -89.828125 C 102.675781 -81.222656 104.71875 -71.285156 104.71875 -60.015625 Z M 80.703125 -60.09375 C 80.703125 -72.15625 78.546875 -81.316406 74.234375 -87.578125 C 69.921875 -93.847656 63.757812 -96.984375 55.75 -96.984375 C 47.800781 -96.984375 41.664062 -93.890625 37.34375 -87.703125 C 33.03125 -81.515625 30.847656 -72.445312 30.796875 -60.5 L 30.796875 -54.890625 C 30.796875 -43.148438 32.953125 -34.039062 37.265625 -27.5625 C 41.585938 -21.082031 47.800781 -17.84375 55.90625 -17.84375 C 63.863281 -17.84375 69.972656 -20.960938 74.234375 -27.203125 C 78.492188 -33.441406 80.648438 -42.535156 80.703125 -54.484375 Z M 80.703125 -60.09375 "/></g></g></g></g></g><g transform="matrix(1, 0, 0, 1, 868, 844)"><g clip-path="url(#ae4960f212)"><g fill="#22c55e" fill-opacity="1"><g transform="translate(0.737791, 156.40219)"><g><path d="M 67.609375 0.8125 C 56.503906 0.8125 46.503906 -1.664062 37.609375 -6.625 C 28.710938 -11.59375 21.703125 -18.441406 16.578125 -27.171875 C 11.453125 -35.898438 8.890625 -45.710938 8.890625 -56.609375 C 8.890625 -67.492188 11.453125 -77.300781 16.578125 -86.03125 C 21.703125 -94.769531 28.710938 -101.617188 37.609375 -106.578125 C 46.503906 -111.535156 56.503906 -114.015625 67.609375 -114.015625 C 75.796875 -114.015625 83.335938 -112.691406 90.234375 -110.046875 C 97.140625 -107.410156 103.019531 -103.503906 107.875 -98.328125 L 102.703125 -93 C 93.640625 -101.945312 82.046875 -106.421875 67.921875 -106.421875 C 58.441406 -106.421875 49.816406 -104.265625 42.046875 -99.953125 C 34.285156 -95.640625 28.191406 -89.679688 23.765625 -82.078125 C 19.347656 -74.472656 17.140625 -65.984375 17.140625 -56.609375 C 17.140625 -47.222656 19.347656 -38.726562 23.765625 -31.125 C 28.191406 -23.53125 34.285156 -17.578125 42.046875 -13.265625 C 49.816406 -8.953125 58.441406 -6.796875 67.921875 -6.796875 C 81.941406 -6.796875 93.535156 -11.320312 102.703125 -20.375 L 107.875 -15.046875 C 103.019531 -9.867188 97.113281 -5.929688 90.15625 -3.234375 C 83.207031 -0.535156 75.691406 0.8125 67.609375 0.8125 Z M 67.609375 0.8125 "/></g></g></g><g fill="#22c55e" fill-opacity="1"><g transform="translate(127.853025, 156.40219)"><g><path d="M 54.671875 -38.984375 L 54.671875 0 L 46.421875 0 L 46.421875 -38.984375 L 0.8125 -113.21875 L 9.859375 -113.21875 L 50.78125 -46.578125 L 91.703125 -113.21875 L 100.28125 -113.21875 Z M 54.671875 -38.984375 "/></g></g></g><g fill="#22c55e" fill-opacity="1"><g transform="translate(240.25143, 156.40219)"><g><path d="M 98.328125 0 L 71.328125 -37.84375 C 67.335938 -37.300781 63.671875 -37.03125 60.328125 -37.03125 L 27.984375 -37.03125 L 27.984375 0 L 19.734375 0 L 19.734375 -113.21875 L 60.328125 -113.21875 C 74.554688 -113.21875 85.710938 -109.847656 93.796875 -103.109375 C 101.890625 -96.367188 105.9375 -87.015625 105.9375 -75.046875 C 105.9375 -66.097656 103.644531 -58.578125 99.0625 -52.484375 C 94.476562 -46.390625 87.925781 -42.101562 79.40625 -39.625 L 107.71875 0 Z M 60.328125 -44.3125 C 72.398438 -44.3125 81.617188 -46.976562 87.984375 -52.3125 C 94.347656 -57.65625 97.53125 -65.234375 97.53125 -75.046875 C 97.53125 -84.859375 94.347656 -92.429688 87.984375 -97.765625 C 81.617188 -103.109375 72.398438 -105.78125 60.328125 -105.78125 L 27.984375 -105.78125 L 27.984375 -44.3125 Z M 60.328125 -44.3125 "/></g></g></g><g fill="#22c55e" fill-opacity="1"><g transform="translate(368.013543, 156.40219)"><g><path d="M 89.765625 -31.859375 L 24.09375 -31.859375 L 9.703125 0 L 0.8125 0 L 52.890625 -113.21875 L 61.140625 -113.21875 L 113.21875 0 L 104.3125 0 Z M 86.6875 -38.8125 L 56.9375 -104.15625 L 27.328125 -38.8125 Z M 86.6875 -38.8125 "/></g></g></g></g></g></svg>