<svg xmlns="http://www.w3.org/2000/svg" xmlns:xlink="http://www.w3.org/1999/xlink" width="2000" zoomAndPan="magnify" viewBox="0 0 1500 1499.999933" height="2000" preserveAspectRatio="xMidYMid meet" version="1.0"><defs><g/></defs><rect x="-150" width="1800" fill="#ffffff" y="-149.999993" height="1799.99992" fill-opacity="1"/><rect x="-150" width="1800" fill="#0a192f" y="-149.999993" height="1799.99992" fill-opacity="1"/><path fill="#3a86ff" d="M 1234.863281 1140.414062 C 1267.269531 1084.304688 1248.035156 1012.558594 1191.933594 980.171875 C 1135.824219 947.773438 1064.082031 967.011719 1031.6875 1023.121094 C 1025.257812 1034.238281 1020.882812 1045.96875 1018.402344 1057.90625 L 864.804688 1057.90625 C 859.671875 1033.4375 846.777344 1010.710938 827.1875 993.636719 L 903.921875 860.738281 C 955.917969 878.554688 1014.898438 857.757812 1043.417969 808.371094 C 1075.796875 752.261719 1056.589844 680.511719 1000.464844 648.125 C 968.730469 629.804688 932.003906 628.003906 900.203125 640.046875 L 824.386719 508.714844 C 835.179688 499.945312 844.59375 489.085938 851.960938 476.324219 C 884.367188 420.222656 865.136719 348.480469 809.03125 316.089844 C 752.921875 283.699219 681.175781 302.917969 648.773438 359.015625 C 616.394531 415.125 635.617188 486.871094 691.726562 519.261719 C 720.910156 536.117188 754.347656 538.996094 784.269531 529.96875 L 861.671875 664.035156 C 853.429688 671.742188 846.171875 680.78125 840.242188 691.0625 C 833.414062 702.894531 828.882812 715.425781 826.488281 728.136719 L 673.792969 728.136719 C 667.660156 695.746094 647.984375 666.121094 617.191406 648.34375 C 561.078125 615.949219 489.347656 635.183594 456.953125 691.28125 C 428.449219 740.667969 439.90625 802.15625 481.332031 838.277344 L 404.617188 971.175781 C 352.617188 953.359375 293.640625 974.160156 265.121094 1023.546875 C 232.742188 1079.644531 251.945312 1151.398438 308.058594 1183.777344 C 364.171875 1216.183594 435.902344 1196.953125 468.304688 1140.851562 C 496.808594 1091.464844 485.339844 1029.976562 443.914062 993.851562 L 520.632812 860.957031 C 545.910156 869.625 572.863281 869.148438 597.136719 860.699219 L 673.511719 992.988281 C 663.734375 1001.378906 655.203125 1011.539062 648.398438 1023.324219 C 616.007812 1079.433594 635.226562 1151.179688 691.339844 1183.570312 C 747.441406 1215.960938 819.183594 1196.730469 851.574219 1140.632812 C 858.457031 1128.703125 863.011719 1116.074219 865.363281 1103.261719 L 1017.972656 1103.261719 C 1024.058594 1135.757812 1043.738281 1165.496094 1074.625 1183.339844 C 1130.730469 1215.730469 1202.46875 1196.515625 1234.863281 1140.414062 Z M 826.96875 773.503906 C 832.066406 798.0625 844.96875 820.910156 864.625 838.054688 L 787.90625 970.953125 C 763.191406 962.480469 736.875 962.746094 713.011719 970.671875 L 636.300781 837.796875 C 645.523438 829.617188 653.625 819.855469 660.132812 808.585938 C 666.617188 797.367188 671.019531 785.519531 673.472656 773.503906 Z M 826.96875 773.503906 " fill-opacity="1" fill-rule="nonzero"/><g fill="#0a192f" fill-opacity="1"><g transform="translate(259.603957, 147.449967)"><g><path d="M 3.359375 -4.265625 L 5.640625 -8.5625 L 6.703125 -8.5625 L 3.859375 -3.328125 L 3.859375 0 L 2.859375 0 L 2.859375 -3.28125 L 0 -8.5625 L 1.09375 -8.5625 Z M 3.359375 -4.265625 "/></g></g><g transform="translate(266.312941, 147.449967)"><g><path d="M 6.5625 -3.21875 C 6.5625 -2.695312 6.492188 -2.226562 6.359375 -1.8125 C 6.222656 -1.394531 6.023438 -1.039062 5.765625 -0.75 C 5.503906 -0.46875 5.191406 -0.25 4.828125 -0.09375 C 4.460938 0.0507812 4.050781 0.125 3.59375 0.125 C 3.164062 0.125 2.769531 0.0507812 2.40625 -0.09375 C 2.050781 -0.25 1.742188 -0.46875 1.484375 -0.75 C 1.222656 -1.039062 1.019531 -1.394531 0.875 -1.8125 C 0.738281 -2.226562 0.671875 -2.695312 0.671875 -3.21875 C 0.671875 -3.925781 0.789062 -4.523438 1.03125 -5.015625 C 1.269531 -5.515625 1.609375 -5.894531 2.046875 -6.15625 C 2.492188 -6.414062 3.023438 -6.546875 3.640625 -6.546875 C 4.222656 -6.546875 4.734375 -6.410156 5.171875 -6.140625 C 5.609375 -5.878906 5.945312 -5.5 6.1875 -5 C 6.4375 -4.507812 6.5625 -3.914062 6.5625 -3.21875 Z M 1.671875 -3.21875 C 1.671875 -2.707031 1.738281 -2.257812 1.875 -1.875 C 2.019531 -1.5 2.234375 -1.207031 2.515625 -1 C 2.796875 -0.789062 3.160156 -0.6875 3.609375 -0.6875 C 4.054688 -0.6875 4.421875 -0.789062 4.703125 -1 C 4.992188 -1.207031 5.207031 -1.5 5.34375 -1.875 C 5.488281 -2.257812 5.5625 -2.707031 5.5625 -3.21875 C 5.5625 -3.726562 5.488281 -4.171875 5.34375 -4.546875 C 5.207031 -4.921875 5 -5.207031 4.71875 -5.40625 C 4.4375 -5.613281 4.066406 -5.71875 3.609375 -5.71875 C 2.941406 -5.71875 2.453125 -5.492188 2.140625 -5.046875 C 1.828125 -4.609375 1.671875 -4 1.671875 -3.21875 Z M 1.671875 -3.21875 "/></g></g><g transform="translate(273.531691, 147.449967)"><g><path d="M 6.328125 -6.421875 L 6.328125 0 L 5.53125 0 L 5.390625 -0.90625 L 5.34375 -0.90625 C 5.207031 -0.675781 5.03125 -0.484375 4.8125 -0.328125 C 4.601562 -0.179688 4.367188 -0.0703125 4.109375 0 C 3.847656 0.0820312 3.566406 0.125 3.265625 0.125 C 2.765625 0.125 2.34375 0.0390625 2 -0.125 C 1.65625 -0.289062 1.394531 -0.546875 1.21875 -0.890625 C 1.039062 -1.234375 0.953125 -1.675781 0.953125 -2.21875 L 0.953125 -6.421875 L 1.9375 -6.421875 L 1.9375 -2.28125 C 1.9375 -1.75 2.054688 -1.347656 2.296875 -1.078125 C 2.546875 -0.816406 2.914062 -0.6875 3.40625 -0.6875 C 3.882812 -0.6875 4.265625 -0.773438 4.546875 -0.953125 C 4.828125 -1.140625 5.03125 -1.40625 5.15625 -1.75 C 5.28125 -2.101562 5.34375 -2.535156 5.34375 -3.046875 L 5.34375 -6.421875 Z M 6.328125 -6.421875 "/></g></g><g transform="translate(280.891065, 147.449967)"><g><path d="M 3.9375 -6.546875 C 4.070312 -6.546875 4.207031 -6.535156 4.34375 -6.515625 C 4.488281 -6.503906 4.613281 -6.488281 4.71875 -6.46875 L 4.59375 -5.5625 C 4.488281 -5.59375 4.375 -5.613281 4.25 -5.625 C 4.125 -5.644531 4.003906 -5.65625 3.890625 -5.65625 C 3.628906 -5.65625 3.382812 -5.601562 3.15625 -5.5 C 2.925781 -5.394531 2.722656 -5.242188 2.546875 -5.046875 C 2.378906 -4.859375 2.242188 -4.625 2.140625 -4.34375 C 2.046875 -4.070312 2 -3.773438 2 -3.453125 L 2 0 L 1.03125 0 L 1.03125 -6.421875 L 1.828125 -6.421875 L 1.9375 -5.234375 L 1.984375 -5.234375 C 2.117188 -5.472656 2.28125 -5.691406 2.46875 -5.890625 C 2.65625 -6.085938 2.867188 -6.242188 3.109375 -6.359375 C 3.359375 -6.484375 3.632812 -6.546875 3.9375 -6.546875 Z M 3.9375 -6.546875 "/></g></g><g transform="translate(285.795361, 147.449967)"><g/></g><g transform="translate(288.912549, 147.449967)"><g><path d="M 4.046875 -6.546875 C 4.847656 -6.546875 5.484375 -6.269531 5.953125 -5.71875 C 6.429688 -5.164062 6.671875 -4.335938 6.671875 -3.234375 C 6.671875 -2.503906 6.5625 -1.890625 6.34375 -1.390625 C 6.125 -0.890625 5.816406 -0.507812 5.421875 -0.25 C 5.023438 0 4.554688 0.125 4.015625 0.125 C 3.679688 0.125 3.382812 0.078125 3.125 -0.015625 C 2.863281 -0.109375 2.640625 -0.226562 2.453125 -0.375 C 2.273438 -0.53125 2.125 -0.695312 2 -0.875 L 1.9375 -0.875 C 1.945312 -0.726562 1.957031 -0.546875 1.96875 -0.328125 C 1.988281 -0.109375 2 0.078125 2 0.234375 L 2 2.875 L 1.03125 2.875 L 1.03125 -6.421875 L 1.828125 -6.421875 L 1.953125 -5.46875 L 2 -5.46875 C 2.125 -5.664062 2.273438 -5.84375 2.453125 -6 C 2.640625 -6.164062 2.863281 -6.296875 3.125 -6.390625 C 3.382812 -6.492188 3.691406 -6.546875 4.046875 -6.546875 Z M 3.875 -5.71875 C 3.425781 -5.71875 3.066406 -5.628906 2.796875 -5.453125 C 2.523438 -5.285156 2.328125 -5.03125 2.203125 -4.6875 C 2.078125 -4.34375 2.007812 -3.914062 2 -3.40625 L 2 -3.21875 C 2 -2.675781 2.054688 -2.21875 2.171875 -1.84375 C 2.296875 -1.46875 2.492188 -1.179688 2.765625 -0.984375 C 3.046875 -0.785156 3.421875 -0.6875 3.890625 -0.6875 C 4.285156 -0.6875 4.613281 -0.796875 4.875 -1.015625 C 5.144531 -1.234375 5.34375 -1.53125 5.46875 -1.90625 C 5.601562 -2.289062 5.671875 -2.734375 5.671875 -3.234375 C 5.671875 -3.992188 5.519531 -4.597656 5.21875 -5.046875 C 4.925781 -5.492188 4.476562 -5.71875 3.875 -5.71875 Z M 3.875 -5.71875 "/></g></g><g transform="translate(296.254345, 147.449967)"><g><path d="M 3.421875 -6.53125 C 4.191406 -6.53125 4.757812 -6.359375 5.125 -6.015625 C 5.5 -5.671875 5.6875 -5.117188 5.6875 -4.359375 L 5.6875 0 L 4.984375 0 L 4.796875 -0.953125 L 4.75 -0.953125 C 4.570312 -0.710938 4.382812 -0.515625 4.1875 -0.359375 C 3.988281 -0.203125 3.757812 -0.0820312 3.5 0 C 3.25 0.0820312 2.9375 0.125 2.5625 0.125 C 2.175781 0.125 1.832031 0.0546875 1.53125 -0.078125 C 1.226562 -0.222656 0.988281 -0.429688 0.8125 -0.703125 C 0.632812 -0.984375 0.546875 -1.335938 0.546875 -1.765625 C 0.546875 -2.398438 0.800781 -2.890625 1.3125 -3.234375 C 1.820312 -3.578125 2.597656 -3.765625 3.640625 -3.796875 L 4.734375 -3.84375 L 4.734375 -4.25 C 4.734375 -4.800781 4.613281 -5.1875 4.375 -5.40625 C 4.144531 -5.632812 3.8125 -5.75 3.375 -5.75 C 3.039062 -5.75 2.71875 -5.695312 2.40625 -5.59375 C 2.101562 -5.5 1.816406 -5.382812 1.546875 -5.25 L 1.25 -5.984375 C 1.539062 -6.140625 1.875 -6.269531 2.25 -6.375 C 2.625 -6.476562 3.015625 -6.53125 3.421875 -6.53125 Z M 4.734375 -3.171875 L 3.75 -3.125 C 2.945312 -3.09375 2.378906 -2.960938 2.046875 -2.734375 C 1.722656 -2.503906 1.5625 -2.175781 1.5625 -1.75 C 1.5625 -1.382812 1.671875 -1.113281 1.890625 -0.9375 C 2.117188 -0.757812 2.414062 -0.671875 2.78125 -0.671875 C 3.351562 -0.671875 3.820312 -0.828125 4.1875 -1.140625 C 4.550781 -1.460938 4.734375 -1.941406 4.734375 -2.578125 Z M 4.734375 -3.171875 "/></g></g><g transform="translate(302.922313, 147.449967)"><g><path d="M 3.9375 -6.546875 C 4.070312 -6.546875 4.207031 -6.535156 4.34375 -6.515625 C 4.488281 -6.503906 4.613281 -6.488281 4.71875 -6.46875 L 4.59375 -5.5625 C 4.488281 -5.59375 4.375 -5.613281 4.25 -5.625 C 4.125 -5.644531 4.003906 -5.65625 3.890625 -5.65625 C 3.628906 -5.65625 3.382812 -5.601562 3.15625 -5.5 C 2.925781 -5.394531 2.722656 -5.242188 2.546875 -5.046875 C 2.378906 -4.859375 2.242188 -4.625 2.140625 -4.34375 C 2.046875 -4.070312 2 -3.773438 2 -3.453125 L 2 0 L 1.03125 0 L 1.03125 -6.421875 L 1.828125 -6.421875 L 1.9375 -5.234375 L 1.984375 -5.234375 C 2.117188 -5.472656 2.28125 -5.691406 2.46875 -5.890625 C 2.65625 -6.085938 2.867188 -6.242188 3.109375 -6.359375 C 3.359375 -6.484375 3.632812 -6.546875 3.9375 -6.546875 Z M 3.9375 -6.546875 "/></g></g><g transform="translate(307.82661, 147.449967)"><g><path d="M 3.421875 -6.53125 C 4.191406 -6.53125 4.757812 -6.359375 5.125 -6.015625 C 5.5 -5.671875 5.6875 -5.117188 5.6875 -4.359375 L 5.6875 0 L 4.984375 0 L 4.796875 -0.953125 L 4.75 -0.953125 C 4.570312 -0.710938 4.382812 -0.515625 4.1875 -0.359375 C 3.988281 -0.203125 3.757812 -0.0820312 3.5 0 C 3.25 0.0820312 2.9375 0.125 2.5625 0.125 C 2.175781 0.125 1.832031 0.0546875 1.53125 -0.078125 C 1.226562 -0.222656 0.988281 -0.429688 0.8125 -0.703125 C 0.632812 -0.984375 0.546875 -1.335938 0.546875 -1.765625 C 0.546875 -2.398438 0.800781 -2.890625 1.3125 -3.234375 C 1.820312 -3.578125 2.597656 -3.765625 3.640625 -3.796875 L 4.734375 -3.84375 L 4.734375 -4.25 C 4.734375 -4.800781 4.613281 -5.1875 4.375 -5.40625 C 4.144531 -5.632812 3.8125 -5.75 3.375 -5.75 C 3.039062 -5.75 2.71875 -5.695312 2.40625 -5.59375 C 2.101562 -5.5 1.816406 -5.382812 1.546875 -5.25 L 1.25 -5.984375 C 1.539062 -6.140625 1.875 -6.269531 2.25 -6.375 C 2.625 -6.476562 3.015625 -6.53125 3.421875 -6.53125 Z M 4.734375 -3.171875 L 3.75 -3.125 C 2.945312 -3.09375 2.378906 -2.960938 2.046875 -2.734375 C 1.722656 -2.503906 1.5625 -2.175781 1.5625 -1.75 C 1.5625 -1.382812 1.671875 -1.113281 1.890625 -0.9375 C 2.117188 -0.757812 2.414062 -0.671875 2.78125 -0.671875 C 3.351562 -0.671875 3.820312 -0.828125 4.1875 -1.140625 C 4.550781 -1.460938 4.734375 -1.941406 4.734375 -2.578125 Z M 4.734375 -3.171875 "/></g></g><g transform="translate(314.494578, 147.449967)"><g><path d="M 2.8125 2.890625 C 1.96875 2.890625 1.316406 2.726562 0.859375 2.40625 C 0.410156 2.09375 0.1875 1.65625 0.1875 1.09375 C 0.1875 0.6875 0.3125 0.335938 0.5625 0.046875 C 0.820312 -0.234375 1.175781 -0.421875 1.625 -0.515625 C 1.457031 -0.585938 1.3125 -0.703125 1.1875 -0.859375 C 1.070312 -1.015625 1.015625 -1.195312 1.015625 -1.40625 C 1.015625 -1.632812 1.078125 -1.835938 1.203125 -2.015625 C 1.335938 -2.191406 1.539062 -2.363281 1.8125 -2.53125 C 1.476562 -2.664062 1.207031 -2.894531 1 -3.21875 C 0.789062 -3.550781 0.6875 -3.929688 0.6875 -4.359375 C 0.6875 -4.828125 0.78125 -5.222656 0.96875 -5.546875 C 1.164062 -5.867188 1.441406 -6.113281 1.796875 -6.28125 C 2.160156 -6.457031 2.601562 -6.546875 3.125 -6.546875 C 3.238281 -6.546875 3.351562 -6.539062 3.46875 -6.53125 C 3.582031 -6.519531 3.691406 -6.503906 3.796875 -6.484375 C 3.898438 -6.472656 3.992188 -6.457031 4.078125 -6.4375 L 6.28125 -6.4375 L 6.28125 -5.8125 L 5.09375 -5.65625 C 5.207031 -5.507812 5.300781 -5.328125 5.375 -5.109375 C 5.457031 -4.890625 5.5 -4.648438 5.5 -4.390625 C 5.5 -3.753906 5.28125 -3.242188 4.84375 -2.859375 C 4.414062 -2.484375 3.820312 -2.296875 3.0625 -2.296875 C 2.882812 -2.296875 2.703125 -2.3125 2.515625 -2.34375 C 2.328125 -2.238281 2.179688 -2.125 2.078125 -2 C 1.972656 -1.875 1.921875 -1.722656 1.921875 -1.546875 C 1.921875 -1.421875 1.957031 -1.320312 2.03125 -1.25 C 2.113281 -1.175781 2.226562 -1.125 2.375 -1.09375 C 2.519531 -1.0625 2.691406 -1.046875 2.890625 -1.046875 L 4.03125 -1.046875 C 4.726562 -1.046875 5.257812 -0.898438 5.625 -0.609375 C 6 -0.316406 6.1875 0.113281 6.1875 0.6875 C 6.1875 1.394531 5.894531 1.9375 5.3125 2.3125 C 4.738281 2.695312 3.90625 2.890625 2.8125 2.890625 Z M 2.84375 2.125 C 3.375 2.125 3.8125 2.066406 4.15625 1.953125 C 4.507812 1.847656 4.773438 1.695312 4.953125 1.5 C 5.128906 1.300781 5.21875 1.0625 5.21875 0.78125 C 5.21875 0.519531 5.15625 0.320312 5.03125 0.1875 C 4.914062 0.0625 4.742188 -0.0195312 4.515625 -0.0625 C 4.296875 -0.113281 4.019531 -0.140625 3.6875 -0.140625 L 2.578125 -0.140625 C 2.285156 -0.140625 2.03125 -0.09375 1.8125 0 C 1.601562 0.09375 1.441406 0.222656 1.328125 0.390625 C 1.210938 0.566406 1.15625 0.789062 1.15625 1.0625 C 1.15625 1.40625 1.300781 1.664062 1.59375 1.84375 C 1.882812 2.03125 2.300781 2.125 2.84375 2.125 Z M 3.09375 -3.015625 C 3.5625 -3.015625 3.910156 -3.128906 4.140625 -3.359375 C 4.378906 -3.597656 4.5 -3.941406 4.5 -4.390625 C 4.5 -4.867188 4.378906 -5.226562 4.140625 -5.46875 C 3.898438 -5.707031 3.550781 -5.828125 3.09375 -5.828125 C 2.644531 -5.828125 2.300781 -5.703125 2.0625 -5.453125 C 1.820312 -5.210938 1.703125 -4.851562 1.703125 -4.375 C 1.703125 -3.9375 1.820312 -3.597656 2.0625 -3.359375 C 2.300781 -3.128906 2.644531 -3.015625 3.09375 -3.015625 Z M 3.09375 -3.015625 "/></g></g><g transform="translate(321.010202, 147.449967)"><g><path d="M 3.9375 -6.546875 C 4.070312 -6.546875 4.207031 -6.535156 4.34375 -6.515625 C 4.488281 -6.503906 4.613281 -6.488281 4.71875 -6.46875 L 4.59375 -5.5625 C 4.488281 -5.59375 4.375 -5.613281 4.25 -5.625 C 4.125 -5.644531 4.003906 -5.65625 3.890625 -5.65625 C 3.628906 -5.65625 3.382812 -5.601562 3.15625 -5.5 C 2.925781 -5.394531 2.722656 -5.242188 2.546875 -5.046875 C 2.378906 -4.859375 2.242188 -4.625 2.140625 -4.34375 C 2.046875 -4.070312 2 -3.773438 2 -3.453125 L 2 0 L 1.03125 0 L 1.03125 -6.421875 L 1.828125 -6.421875 L 1.9375 -5.234375 L 1.984375 -5.234375 C 2.117188 -5.472656 2.28125 -5.691406 2.46875 -5.890625 C 2.65625 -6.085938 2.867188 -6.242188 3.109375 -6.359375 C 3.359375 -6.484375 3.632812 -6.546875 3.9375 -6.546875 Z M 3.9375 -6.546875 "/></g></g><g transform="translate(325.914499, 147.449967)"><g><path d="M 3.421875 -6.53125 C 4.191406 -6.53125 4.757812 -6.359375 5.125 -6.015625 C 5.5 -5.671875 5.6875 -5.117188 5.6875 -4.359375 L 5.6875 0 L 4.984375 0 L 4.796875 -0.953125 L 4.75 -0.953125 C 4.570312 -0.710938 4.382812 -0.515625 4.1875 -0.359375 C 3.988281 -0.203125 3.757812 -0.0820312 3.5 0 C 3.25 0.0820312 2.9375 0.125 2.5625 0.125 C 2.175781 0.125 1.832031 0.0546875 1.53125 -0.078125 C 1.226562 -0.222656 0.988281 -0.429688 0.8125 -0.703125 C 0.632812 -0.984375 0.546875 -1.335938 0.546875 -1.765625 C 0.546875 -2.398438 0.800781 -2.890625 1.3125 -3.234375 C 1.820312 -3.578125 2.597656 -3.765625 3.640625 -3.796875 L 4.734375 -3.84375 L 4.734375 -4.25 C 4.734375 -4.800781 4.613281 -5.1875 4.375 -5.40625 C 4.144531 -5.632812 3.8125 -5.75 3.375 -5.75 C 3.039062 -5.75 2.71875 -5.695312 2.40625 -5.59375 C 2.101562 -5.5 1.816406 -5.382812 1.546875 -5.25 L 1.25 -5.984375 C 1.539062 -6.140625 1.875 -6.269531 2.25 -6.375 C 2.625 -6.476562 3.015625 -6.53125 3.421875 -6.53125 Z M 4.734375 -3.171875 L 3.75 -3.125 C 2.945312 -3.09375 2.378906 -2.960938 2.046875 -2.734375 C 1.722656 -2.503906 1.5625 -2.175781 1.5625 -1.75 C 1.5625 -1.382812 1.671875 -1.113281 1.890625 -0.9375 C 2.117188 -0.757812 2.414062 -0.671875 2.78125 -0.671875 C 3.351562 -0.671875 3.820312 -0.828125 4.1875 -1.140625 C 4.550781 -1.460938 4.734375 -1.941406 4.734375 -2.578125 Z M 4.734375 -3.171875 "/></g></g><g transform="translate(332.582467, 147.449967)"><g><path d="M 4.046875 -6.546875 C 4.847656 -6.546875 5.484375 -6.269531 5.953125 -5.71875 C 6.429688 -5.164062 6.671875 -4.335938 6.671875 -3.234375 C 6.671875 -2.503906 6.5625 -1.890625 6.34375 -1.390625 C 6.125 -0.890625 5.816406 -0.507812 5.421875 -0.25 C 5.023438 0 4.554688 0.125 4.015625 0.125 C 3.679688 0.125 3.382812 0.078125 3.125 -0.015625 C 2.863281 -0.109375 2.640625 -0.226562 2.453125 -0.375 C 2.273438 -0.53125 2.125 -0.695312 2 -0.875 L 1.9375 -0.875 C 1.945312 -0.726562 1.957031 -0.546875 1.96875 -0.328125 C 1.988281 -0.109375 2 0.078125 2 0.234375 L 2 2.875 L 1.03125 2.875 L 1.03125 -6.421875 L 1.828125 -6.421875 L 1.953125 -5.46875 L 2 -5.46875 C 2.125 -5.664062 2.273438 -5.84375 2.453125 -6 C 2.640625 -6.164062 2.863281 -6.296875 3.125 -6.390625 C 3.382812 -6.492188 3.691406 -6.546875 4.046875 -6.546875 Z M 3.875 -5.71875 C 3.425781 -5.71875 3.066406 -5.628906 2.796875 -5.453125 C 2.523438 -5.285156 2.328125 -5.03125 2.203125 -4.6875 C 2.078125 -4.34375 2.007812 -3.914062 2 -3.40625 L 2 -3.21875 C 2 -2.675781 2.054688 -2.21875 2.171875 -1.84375 C 2.296875 -1.46875 2.492188 -1.179688 2.765625 -0.984375 C 3.046875 -0.785156 3.421875 -0.6875 3.890625 -0.6875 C 4.285156 -0.6875 4.613281 -0.796875 4.875 -1.015625 C 5.144531 -1.234375 5.34375 -1.53125 5.46875 -1.90625 C 5.601562 -2.289062 5.671875 -2.734375 5.671875 -3.234375 C 5.671875 -3.992188 5.519531 -4.597656 5.21875 -5.046875 C 4.925781 -5.492188 4.476562 -5.71875 3.875 -5.71875 Z M 3.875 -5.71875 "/></g></g><g transform="translate(339.924263, 147.449967)"><g><path d="M 2 -9.125 L 2 -6.390625 C 2 -6.234375 1.992188 -6.078125 1.984375 -5.921875 C 1.972656 -5.765625 1.960938 -5.617188 1.953125 -5.484375 L 2.015625 -5.484375 C 2.140625 -5.710938 2.304688 -5.898438 2.515625 -6.046875 C 2.722656 -6.203125 2.957031 -6.320312 3.21875 -6.40625 C 3.476562 -6.488281 3.753906 -6.53125 4.046875 -6.53125 C 4.566406 -6.53125 5 -6.445312 5.34375 -6.28125 C 5.6875 -6.113281 5.941406 -5.859375 6.109375 -5.515625 C 6.285156 -5.171875 6.375 -4.726562 6.375 -4.1875 L 6.375 0 L 5.421875 0 L 5.421875 -4.125 C 5.421875 -4.65625 5.296875 -5.050781 5.046875 -5.3125 C 4.804688 -5.582031 4.4375 -5.71875 3.9375 -5.71875 C 3.457031 -5.71875 3.078125 -5.625 2.796875 -5.4375 C 2.515625 -5.257812 2.3125 -4.992188 2.1875 -4.640625 C 2.0625 -4.296875 2 -3.867188 2 -3.359375 L 2 0 L 1.03125 0 L 1.03125 -9.125 Z M 2 -9.125 "/></g></g><g transform="translate(347.283638, 147.449967)"><g/></g><g transform="translate(350.400825, 147.449967)"><g><path d="M 3.09375 -0.6875 C 3.257812 -0.6875 3.425781 -0.695312 3.59375 -0.71875 C 3.757812 -0.75 3.894531 -0.785156 4 -0.828125 L 4 -0.0625 C 3.882812 -0.0078125 3.726562 0.03125 3.53125 0.0625 C 3.332031 0.101562 3.132812 0.125 2.9375 0.125 C 2.601562 0.125 2.296875 0.0664062 2.015625 -0.046875 C 1.734375 -0.171875 1.507812 -0.375 1.34375 -0.65625 C 1.1875 -0.945312 1.109375 -1.347656 1.109375 -1.859375 L 1.109375 -5.65625 L 0.1875 -5.65625 L 0.1875 -6.140625 L 1.109375 -6.515625 L 1.5 -7.90625 L 2.078125 -7.90625 L 2.078125 -6.421875 L 3.96875 -6.421875 L 3.96875 -5.65625 L 2.078125 -5.65625 L 2.078125 -1.875 C 2.078125 -1.476562 2.171875 -1.179688 2.359375 -0.984375 C 2.546875 -0.785156 2.789062 -0.6875 3.09375 -0.6875 Z M 3.09375 -0.6875 "/></g></g><g transform="translate(354.678168, 147.449967)"><g><path d="M 3.5 -6.546875 C 4.039062 -6.546875 4.503906 -6.421875 4.890625 -6.171875 C 5.285156 -5.929688 5.585938 -5.59375 5.796875 -5.15625 C 6.003906 -4.71875 6.109375 -4.210938 6.109375 -3.640625 L 6.109375 -3.03125 L 1.671875 -3.03125 C 1.679688 -2.28125 1.867188 -1.707031 2.234375 -1.3125 C 2.597656 -0.914062 3.113281 -0.71875 3.78125 -0.71875 C 4.1875 -0.71875 4.546875 -0.753906 4.859375 -0.828125 C 5.171875 -0.898438 5.492188 -1.007812 5.828125 -1.15625 L 5.828125 -0.296875 C 5.503906 -0.148438 5.179688 -0.046875 4.859375 0.015625 C 4.546875 0.0859375 4.171875 0.125 3.734375 0.125 C 3.117188 0.125 2.582031 0 2.125 -0.25 C 1.664062 -0.507812 1.304688 -0.882812 1.046875 -1.375 C 0.796875 -1.863281 0.671875 -2.460938 0.671875 -3.171875 C 0.671875 -3.859375 0.785156 -4.453125 1.015625 -4.953125 C 1.242188 -5.460938 1.570312 -5.851562 2 -6.125 C 2.425781 -6.40625 2.925781 -6.546875 3.5 -6.546875 Z M 3.484375 -5.75 C 2.960938 -5.75 2.546875 -5.578125 2.234375 -5.234375 C 1.929688 -4.890625 1.75 -4.414062 1.6875 -3.8125 L 5.09375 -3.8125 C 5.09375 -4.195312 5.03125 -4.53125 4.90625 -4.8125 C 4.789062 -5.101562 4.613281 -5.332031 4.375 -5.5 C 4.144531 -5.664062 3.847656 -5.75 3.484375 -5.75 Z M 3.484375 -5.75 "/></g></g><g transform="translate(361.416449, 147.449967)"><g><path d="M 2.5625 -3.28125 L 0.328125 -6.421875 L 1.453125 -6.421875 L 3.140625 -3.953125 L 4.828125 -6.421875 L 5.9375 -6.421875 L 3.703125 -3.28125 L 6.046875 0 L 4.9375 0 L 3.140625 -2.625 L 1.328125 0 L 0.234375 0 Z M 2.5625 -3.28125 "/></g></g><g transform="translate(367.697698, 147.449967)"><g><path d="M 3.09375 -0.6875 C 3.257812 -0.6875 3.425781 -0.695312 3.59375 -0.71875 C 3.757812 -0.75 3.894531 -0.785156 4 -0.828125 L 4 -0.0625 C 3.882812 -0.0078125 3.726562 0.03125 3.53125 0.0625 C 3.332031 0.101562 3.132812 0.125 2.9375 0.125 C 2.601562 0.125 2.296875 0.0664062 2.015625 -0.046875 C 1.734375 -0.171875 1.507812 -0.375 1.34375 -0.65625 C 1.1875 -0.945312 1.109375 -1.347656 1.109375 -1.859375 L 1.109375 -5.65625 L 0.1875 -5.65625 L 0.1875 -6.140625 L 1.109375 -6.515625 L 1.5 -7.90625 L 2.078125 -7.90625 L 2.078125 -6.421875 L 3.96875 -6.421875 L 3.96875 -5.65625 L 2.078125 -5.65625 L 2.078125 -1.875 C 2.078125 -1.476562 2.171875 -1.179688 2.359375 -0.984375 C 2.546875 -0.785156 2.789062 -0.6875 3.09375 -0.6875 Z M 3.09375 -0.6875 "/></g></g></g></svg>