<svg xmlns="http://www.w3.org/2000/svg" xmlns:xlink="http://www.w3.org/1999/xlink" width="2000" zoomAndPan="magnify" viewBox="0 0 1500 1499.999933" height="2000" preserveAspectRatio="xMidYMid meet" version="1.0"><defs><g/></defs><rect x="-150" width="1800" fill="#ffffff" y="-149.999993" height="1799.99992" fill-opacity="1"/><rect x="-150" width="1800" fill="#0a192f" y="-149.999993" height="1799.99992" fill-opacity="1"/><path fill="#3a86ff" d="M 933.453125 765.449219 C 945.4375 744.695312 938.324219 718.15625 917.574219 706.175781 C 896.816406 694.191406 870.277344 701.308594 858.296875 722.0625 C 855.917969 726.175781 854.300781 730.515625 853.382812 734.929688 L 796.566406 734.929688 C 794.667969 725.878906 789.898438 717.472656 782.652344 711.15625 L 811.035156 662 C 830.269531 668.589844 852.085938 660.894531 862.636719 642.628906 C 874.613281 621.871094 867.507812 595.332031 846.746094 583.351562 C 835.007812 576.574219 821.425781 575.910156 809.660156 580.363281 L 781.617188 531.785156 C 785.609375 528.539062 789.089844 524.523438 791.816406 519.804688 C 803.804688 499.050781 796.691406 472.515625 775.9375 460.53125 C 755.183594 448.550781 728.644531 455.660156 716.660156 476.410156 C 704.679688 497.167969 711.792969 523.707031 732.546875 535.6875 C 743.34375 541.921875 755.710938 542.984375 766.777344 539.644531 L 795.410156 589.238281 C 792.359375 592.089844 789.675781 595.433594 787.480469 599.234375 C 784.957031 603.613281 783.28125 608.246094 782.394531 612.949219 L 725.914062 612.949219 C 723.644531 600.96875 716.367188 590.007812 704.976562 583.433594 C 684.21875 571.449219 657.6875 578.566406 645.703125 599.316406 C 635.160156 617.582031 639.398438 640.328125 654.722656 653.691406 L 626.34375 702.847656 C 607.109375 696.257812 585.292969 703.953125 574.746094 722.21875 C 562.769531 742.972656 569.871094 769.511719 590.628906 781.488281 C 611.382812 793.476562 637.917969 786.363281 649.902344 765.609375 C 660.445312 747.34375 656.203125 724.597656 640.878906 711.238281 L 669.257812 662.078125 C 678.609375 665.285156 688.578125 665.109375 697.558594 661.984375 L 725.808594 710.917969 C 722.191406 714.019531 719.035156 717.777344 716.519531 722.136719 C 704.539062 742.894531 711.648438 769.429688 732.402344 781.414062 C 753.15625 793.394531 779.691406 786.28125 791.671875 765.53125 C 794.21875 761.117188 795.902344 756.445312 796.773438 751.707031 L 853.222656 751.707031 C 855.476562 763.726562 862.753906 774.726562 874.179688 781.328125 C 894.933594 793.308594 921.46875 786.203125 933.453125 765.449219 Z M 782.574219 629.730469 C 784.457031 638.8125 789.230469 647.265625 796.5 653.609375 L 768.121094 702.765625 C 758.980469 699.632812 749.246094 699.730469 740.417969 702.660156 L 712.042969 653.511719 C 715.457031 650.484375 718.453125 646.875 720.859375 642.707031 C 723.257812 638.554688 724.886719 634.175781 725.792969 629.730469 Z M 782.574219 629.730469 " fill-opacity="1" fill-rule="nonzero"/><g fill="#ccd6f6" fill-opacity="1"><g transform="translate(201.717233, 947.715714)"><g><path d="M 89.828125 -88.875 L 57.140625 -88.875 L 57.140625 0 L 35.171875 0 L 35.171875 -88.875 L 2.9375 -88.875 L 2.9375 -106.671875 L 89.828125 -106.671875 Z M 89.828125 -88.875 "/></g></g></g><g fill="#ccd6f6" fill-opacity="1"><g transform="translate(302.046845, 947.715714)"><g><path d="M 73.703125 -46.234375 L 31.5 -46.234375 L 31.5 -17.65625 L 81.03125 -17.65625 L 81.03125 0 L 9.53125 0 L 9.53125 -106.671875 L 80.890625 -106.671875 L 80.890625 -88.875 L 31.5 -88.875 L 31.5 -63.453125 L 73.703125 -63.453125 Z M 73.703125 -46.234375 "/></g></g></g><g fill="#ccd6f6" fill-opacity="1"><g transform="translate(393.950974, 947.715714)"><g><path d="M 93.265625 -35.53125 C 92.429688 -24.050781 88.191406 -15.015625 80.546875 -8.421875 C 72.910156 -1.828125 62.835938 1.46875 50.328125 1.46875 C 36.648438 1.46875 25.890625 -3.132812 18.046875 -12.34375 C 10.210938 -21.550781 6.296875 -34.191406 6.296875 -50.265625 L 6.296875 -56.78125 C 6.296875 -67.039062 8.101562 -76.078125 11.71875 -83.890625 C 15.332031 -91.703125 20.5 -97.695312 27.21875 -101.875 C 33.9375 -106.050781 41.738281 -108.140625 50.625 -108.140625 C 62.9375 -108.140625 72.851562 -104.84375 80.375 -98.25 C 87.894531 -91.65625 92.238281 -82.398438 93.40625 -70.484375 L 71.4375 -70.484375 C 70.894531 -77.367188 68.972656 -82.359375 65.671875 -85.453125 C 62.378906 -88.554688 57.363281 -90.109375 50.625 -90.109375 C 43.300781 -90.109375 37.816406 -87.484375 34.171875 -82.234375 C 30.535156 -76.984375 28.671875 -68.84375 28.578125 -57.8125 L 28.578125 -49.75 C 28.578125 -38.21875 30.320312 -29.789062 33.8125 -24.46875 C 37.300781 -19.144531 42.804688 -16.484375 50.328125 -16.484375 C 57.117188 -16.484375 62.1875 -18.035156 65.53125 -21.140625 C 68.875 -24.242188 70.789062 -29.039062 71.28125 -35.53125 Z M 93.265625 -35.53125 "/></g></g></g><g fill="#ccd6f6" fill-opacity="1"><g transform="translate(499.628935, 947.715714)"><g><path d="M 96.34375 0 L 74.359375 0 L 74.359375 -45.71875 L 31.5 -45.71875 L 31.5 0 L 9.53125 0 L 9.53125 -106.671875 L 31.5 -106.671875 L 31.5 -63.453125 L 74.359375 -63.453125 L 74.359375 -106.671875 L 96.34375 -106.671875 Z M 96.34375 0 "/></g></g></g><g fill="#ccd6f6" fill-opacity="1"><g transform="translate(613.146259, 947.715714)"><g><path d="M 96.265625 0 L 74.296875 0 L 31.5 -70.1875 L 31.5 0 L 9.53125 0 L 9.53125 -106.671875 L 31.5 -106.671875 L 74.359375 -36.34375 L 74.359375 -106.671875 L 96.265625 -106.671875 Z M 96.265625 0 "/></g></g></g><g fill="#ccd6f6" fill-opacity="1"><g transform="translate(726.590296, 947.715714)"><g><path d="M 97.15625 -50.921875 C 97.15625 -40.421875 95.296875 -31.210938 91.578125 -23.296875 C 87.867188 -15.378906 82.554688 -9.269531 75.640625 -4.96875 C 68.734375 -0.675781 60.8125 1.46875 51.875 1.46875 C 43.03125 1.46875 35.140625 -0.65625 28.203125 -4.90625 C 21.265625 -9.15625 15.890625 -15.222656 12.078125 -23.109375 C 8.273438 -31.003906 6.347656 -40.078125 6.296875 -50.328125 L 6.296875 -55.609375 C 6.296875 -66.109375 8.1875 -75.347656 11.96875 -83.328125 C 15.757812 -91.316406 21.109375 -97.445312 28.015625 -101.71875 C 34.929688 -106 42.832031 -108.140625 51.71875 -108.140625 C 60.613281 -108.140625 68.515625 -106 75.421875 -101.71875 C 82.335938 -97.445312 87.6875 -91.316406 91.46875 -83.328125 C 95.257812 -75.347656 97.15625 -66.132812 97.15625 -55.6875 Z M 74.875 -55.75 C 74.875 -66.9375 72.867188 -75.4375 68.859375 -81.25 C 64.859375 -87.0625 59.144531 -89.96875 51.71875 -89.96875 C 44.34375 -89.96875 38.648438 -87.097656 34.640625 -81.359375 C 30.640625 -75.617188 28.617188 -67.207031 28.578125 -56.125 L 28.578125 -50.921875 C 28.578125 -40.023438 30.578125 -31.570312 34.578125 -25.5625 C 38.585938 -19.5625 44.351562 -16.5625 51.875 -16.5625 C 59.25 -16.5625 64.910156 -19.453125 68.859375 -25.234375 C 72.816406 -31.023438 74.820312 -39.460938 74.875 -50.546875 Z M 74.875 -55.75 "/></g></g></g><g fill="#22c55e" fill-opacity="1"><g transform="translate(856.973864, 949.965714)"><g><path d="M 62.71875 0.75 C 52.414062 0.75 43.132812 -1.546875 34.875 -6.140625 C 26.625 -10.742188 20.125 -17.097656 15.375 -25.203125 C 10.625 -33.304688 8.25 -42.410156 8.25 -52.515625 C 8.25 -62.617188 10.625 -71.722656 15.375 -79.828125 C 20.125 -87.929688 26.625 -94.28125 34.875 -98.875 C 43.132812 -103.476562 52.414062 -105.78125 62.71875 -105.78125 C 70.320312 -105.78125 77.320312 -104.554688 83.71875 -102.109375 C 90.125 -99.660156 95.578125 -96.035156 100.078125 -91.234375 L 95.28125 -86.28125 C 86.875 -94.582031 76.117188 -98.734375 63.015625 -98.734375 C 54.210938 -98.734375 46.207031 -96.734375 39 -92.734375 C 31.800781 -88.734375 26.148438 -83.207031 22.046875 -76.15625 C 17.953125 -69.101562 15.90625 -61.222656 15.90625 -52.515625 C 15.90625 -43.816406 17.953125 -35.941406 22.046875 -28.890625 C 26.148438 -21.835938 31.800781 -16.304688 39 -12.296875 C 46.207031 -8.296875 54.210938 -6.296875 63.015625 -6.296875 C 76.023438 -6.296875 86.78125 -10.5 95.28125 -18.90625 L 100.078125 -13.953125 C 95.578125 -9.148438 90.097656 -5.5 83.640625 -3 C 77.191406 -0.5 70.21875 0.75 62.71875 0.75 Z M 62.71875 0.75 "/></g></g></g><g fill="#22c55e" fill-opacity="1"><g transform="translate(974.911308, 949.965714)"><g><path d="M 50.71875 -36.15625 L 50.71875 0 L 43.0625 0 L 43.0625 -36.15625 L 0.75 -105.03125 L 9.15625 -105.03125 L 47.109375 -43.21875 L 85.078125 -105.03125 L 93.03125 -105.03125 Z M 50.71875 -36.15625 "/></g></g></g><g fill="#22c55e" fill-opacity="1"><g transform="translate(1079.194486, 949.965714)"><g><path d="M 91.234375 0 L 66.171875 -35.109375 C 62.472656 -34.609375 59.070312 -34.359375 55.96875 -34.359375 L 25.953125 -34.359375 L 25.953125 0 L 18.3125 0 L 18.3125 -105.03125 L 55.96875 -105.03125 C 69.175781 -105.03125 79.53125 -101.90625 87.03125 -95.65625 C 94.53125 -89.40625 98.28125 -80.726562 98.28125 -69.625 C 98.28125 -61.320312 96.15625 -54.34375 91.90625 -48.6875 C 87.65625 -43.039062 81.578125 -39.066406 73.671875 -36.765625 L 99.9375 0 Z M 55.96875 -41.109375 C 67.164062 -41.109375 75.71875 -43.582031 81.625 -48.53125 C 87.53125 -53.488281 90.484375 -60.519531 90.484375 -69.625 C 90.484375 -78.726562 87.53125 -85.753906 81.625 -90.703125 C 75.71875 -95.648438 67.164062 -98.125 55.96875 -98.125 L 25.953125 -98.125 L 25.953125 -41.109375 Z M 55.96875 -41.109375 "/></g></g></g><g fill="#22c55e" fill-opacity="1"><g transform="translate(1197.732104, 949.965714)"><g><path d="M 83.28125 -29.5625 L 22.359375 -29.5625 L 9 0 L 0.75 0 L 49.0625 -105.03125 L 56.71875 -105.03125 L 105.03125 0 L 96.78125 0 Z M 80.421875 -36.015625 L 52.8125 -96.625 L 25.359375 -36.015625 Z M 80.421875 -36.015625 "/></g></g></g><g fill="#ccd6f6" fill-opacity="1"><g transform="translate(131.558225, 1043.979154)"><g><path d="M 8.359375 0 L 3.125 0 L 3.125 -28.03125 L 8.359375 -28.03125 Z M 8.359375 0 "/></g></g></g><g fill="#ccd6f6" fill-opacity="1"><g transform="translate(168.594575, 1043.979154)"><g><path d="M 26.75 -28.03125 L 26.75 0 L 24.078125 0 C 23.660156 0 23.3125 -0.0664062 23.03125 -0.203125 C 22.757812 -0.335938 22.492188 -0.566406 22.234375 -0.890625 L 7.59375 -19.578125 C 7.675781 -18.722656 7.71875 -17.9375 7.71875 -17.21875 L 7.71875 0 L 3.125 0 L 3.125 -28.03125 L 5.859375 -28.03125 C 6.078125 -28.03125 6.265625 -28.019531 6.421875 -28 C 6.585938 -27.976562 6.726562 -27.9375 6.84375 -27.875 C 6.96875 -27.820312 7.085938 -27.738281 7.203125 -27.625 C 7.328125 -27.519531 7.457031 -27.375 7.59375 -27.1875 L 22.296875 -8.4375 C 22.253906 -8.882812 22.21875 -9.328125 22.1875 -9.765625 C 22.164062 -10.203125 22.15625 -10.609375 22.15625 -10.984375 L 22.15625 -28.03125 Z M 26.75 -28.03125 "/></g></g></g><g fill="#ccd6f6" fill-opacity="1"><g transform="translate(224.000317, 1043.979154)"><g><path d="M 26.75 -28.03125 L 26.75 0 L 24.078125 0 C 23.660156 0 23.3125 -0.0664062 23.03125 -0.203125 C 22.757812 -0.335938 22.492188 -0.566406 22.234375 -0.890625 L 7.59375 -19.578125 C 7.675781 -18.722656 7.71875 -17.9375 7.71875 -17.21875 L 7.71875 0 L 3.125 0 L 3.125 -28.03125 L 5.859375 -28.03125 C 6.078125 -28.03125 6.265625 -28.019531 6.421875 -28 C 6.585938 -27.976562 6.726562 -27.9375 6.84375 -27.875 C 6.96875 -27.820312 7.085938 -27.738281 7.203125 -27.625 C 7.328125 -27.519531 7.457031 -27.375 7.59375 -27.1875 L 22.296875 -8.4375 C 22.253906 -8.882812 22.21875 -9.328125 22.1875 -9.765625 C 22.164062 -10.203125 22.15625 -10.609375 22.15625 -10.984375 L 22.15625 -28.03125 Z M 26.75 -28.03125 "/></g></g></g><g fill="#ccd6f6" fill-opacity="1"><g transform="translate(279.406059, 1043.979154)"><g><path d="M 29.84375 -14.015625 C 29.84375 -11.960938 29.503906 -10.054688 28.828125 -8.296875 C 28.148438 -6.546875 27.191406 -5.03125 25.953125 -3.75 C 24.710938 -2.476562 23.21875 -1.484375 21.46875 -0.765625 C 19.726562 -0.046875 17.789062 0.3125 15.65625 0.3125 C 13.539062 0.3125 11.609375 -0.046875 9.859375 -0.765625 C 8.117188 -1.484375 6.625 -2.476562 5.375 -3.75 C 4.132812 -5.03125 3.171875 -6.546875 2.484375 -8.296875 C 1.796875 -10.054688 1.453125 -11.960938 1.453125 -14.015625 C 1.453125 -16.066406 1.796875 -17.96875 2.484375 -19.71875 C 3.171875 -21.46875 4.132812 -22.984375 5.375 -24.265625 C 6.625 -25.546875 8.117188 -26.546875 9.859375 -27.265625 C 11.609375 -27.984375 13.539062 -28.34375 15.65625 -28.34375 C 17.082031 -28.34375 18.421875 -28.175781 19.671875 -27.84375 C 20.921875 -27.507812 22.066406 -27.039062 23.109375 -26.4375 C 24.160156 -25.84375 25.101562 -25.113281 25.9375 -24.25 C 26.769531 -23.394531 27.476562 -22.4375 28.0625 -21.375 C 28.644531 -20.320312 29.085938 -19.171875 29.390625 -17.921875 C 29.691406 -16.679688 29.84375 -15.378906 29.84375 -14.015625 Z M 24.515625 -14.015625 C 24.515625 -15.546875 24.304688 -16.921875 23.890625 -18.140625 C 23.484375 -19.367188 22.894531 -20.410156 22.125 -21.265625 C 21.363281 -22.117188 20.4375 -22.769531 19.34375 -23.21875 C 18.257812 -23.675781 17.03125 -23.90625 15.65625 -23.90625 C 14.289062 -23.90625 13.0625 -23.675781 11.96875 -23.21875 C 10.875 -22.769531 9.941406 -22.117188 9.171875 -21.265625 C 8.410156 -20.410156 7.820312 -19.367188 7.40625 -18.140625 C 6.988281 -16.921875 6.78125 -15.546875 6.78125 -14.015625 C 6.78125 -12.472656 6.988281 -11.09375 7.40625 -9.875 C 7.820312 -8.65625 8.410156 -7.617188 9.171875 -6.765625 C 9.941406 -5.921875 10.875 -5.269531 11.96875 -4.8125 C 13.0625 -4.363281 14.289062 -4.140625 15.65625 -4.140625 C 17.03125 -4.140625 18.257812 -4.363281 19.34375 -4.8125 C 20.4375 -5.269531 21.363281 -5.921875 22.125 -6.765625 C 22.894531 -7.617188 23.484375 -8.65625 23.890625 -9.875 C 24.304688 -11.09375 24.515625 -12.472656 24.515625 -14.015625 Z M 24.515625 -14.015625 "/></g></g></g><g fill="#ccd6f6" fill-opacity="1"><g transform="translate(336.265086, 1043.979154)"><g><path d="M 27.140625 -28.03125 L 15.8125 0 L 11.109375 0 L -0.21875 -28.03125 L 3.96875 -28.03125 C 4.425781 -28.03125 4.796875 -27.921875 5.078125 -27.703125 C 5.359375 -27.484375 5.570312 -27.195312 5.71875 -26.84375 L 12.328125 -9.75 C 12.546875 -9.195312 12.753906 -8.585938 12.953125 -7.921875 C 13.148438 -7.253906 13.34375 -6.554688 13.53125 -5.828125 C 13.6875 -6.554688 13.851562 -7.253906 14.03125 -7.921875 C 14.207031 -8.585938 14.410156 -9.195312 14.640625 -9.75 L 21.203125 -26.84375 C 21.304688 -27.144531 21.507812 -27.414062 21.8125 -27.65625 C 22.113281 -27.90625 22.488281 -28.03125 22.9375 -28.03125 Z M 27.140625 -28.03125 "/></g></g></g><g fill="#ccd6f6" fill-opacity="1"><g transform="translate(388.725508, 1043.979154)"><g><path d="M 17.921875 -10.578125 L 14.515625 -19.90625 C 14.347656 -20.320312 14.171875 -20.8125 13.984375 -21.375 C 13.804688 -21.945312 13.628906 -22.5625 13.453125 -23.21875 C 13.285156 -22.5625 13.109375 -21.941406 12.921875 -21.359375 C 12.742188 -20.785156 12.570312 -20.289062 12.40625 -19.875 L 9.015625 -10.578125 Z M 27.140625 0 L 23.109375 0 C 22.648438 0 22.28125 -0.109375 22 -0.328125 C 21.71875 -0.554688 21.503906 -0.84375 21.359375 -1.1875 L 19.265625 -6.90625 L 7.65625 -6.90625 L 5.5625 -1.1875 C 5.457031 -0.882812 5.253906 -0.609375 4.953125 -0.359375 C 4.660156 -0.117188 4.296875 0 3.859375 0 L -0.21875 0 L 10.8125 -28.03125 L 16.125 -28.03125 Z M 27.140625 0 "/></g></g></g><g fill="#ccd6f6" fill-opacity="1"><g transform="translate(441.185929, 1043.979154)"><g><path d="M 22.375 -6.609375 C 22.65625 -6.609375 22.90625 -6.5 23.125 -6.28125 L 25.171875 -4.046875 C 24.035156 -2.640625 22.632812 -1.5625 20.96875 -0.8125 C 19.3125 -0.0625 17.320312 0.3125 15 0.3125 C 12.914062 0.3125 11.046875 -0.0390625 9.390625 -0.75 C 7.734375 -1.46875 6.316406 -2.457031 5.140625 -3.71875 C 3.960938 -4.988281 3.0625 -6.5 2.4375 -8.25 C 1.8125 -10.007812 1.5 -11.929688 1.5 -14.015625 C 1.5 -16.117188 1.832031 -18.046875 2.5 -19.796875 C 3.175781 -21.546875 4.125 -23.050781 5.34375 -24.3125 C 6.5625 -25.582031 8.015625 -26.570312 9.703125 -27.28125 C 11.398438 -27.988281 13.273438 -28.34375 15.328125 -28.34375 C 17.367188 -28.34375 19.179688 -28.003906 20.765625 -27.328125 C 22.347656 -26.660156 23.695312 -25.78125 24.8125 -24.6875 L 23.0625 -22.265625 C 22.957031 -22.109375 22.820312 -21.972656 22.65625 -21.859375 C 22.5 -21.742188 22.28125 -21.6875 22 -21.6875 C 21.800781 -21.6875 21.597656 -21.738281 21.390625 -21.84375 C 21.191406 -21.957031 20.96875 -22.09375 20.71875 -22.25 C 20.476562 -22.414062 20.191406 -22.59375 19.859375 -22.78125 C 19.535156 -22.976562 19.160156 -23.15625 18.734375 -23.3125 C 18.316406 -23.476562 17.828125 -23.617188 17.265625 -23.734375 C 16.703125 -23.847656 16.050781 -23.90625 15.3125 -23.90625 C 14.0625 -23.90625 12.914062 -23.679688 11.875 -23.234375 C 10.832031 -22.785156 9.9375 -22.132812 9.1875 -21.28125 C 8.4375 -20.4375 7.851562 -19.40625 7.4375 -18.1875 C 7.03125 -16.96875 6.828125 -15.578125 6.828125 -14.015625 C 6.828125 -12.441406 7.046875 -11.039062 7.484375 -9.8125 C 7.929688 -8.582031 8.535156 -7.546875 9.296875 -6.703125 C 10.066406 -5.867188 10.96875 -5.226562 12 -4.78125 C 13.03125 -4.332031 14.140625 -4.109375 15.328125 -4.109375 C 16.035156 -4.109375 16.675781 -4.144531 17.25 -4.21875 C 17.832031 -4.300781 18.363281 -4.425781 18.84375 -4.59375 C 19.332031 -4.757812 19.789062 -4.972656 20.21875 -5.234375 C 20.65625 -5.503906 21.085938 -5.832031 21.515625 -6.21875 C 21.640625 -6.332031 21.773438 -6.425781 21.921875 -6.5 C 22.066406 -6.570312 22.21875 -6.609375 22.375 -6.609375 Z M 22.375 -6.609375 "/></g></g></g><g fill="#ccd6f6" fill-opacity="1"><g transform="translate(492.367497, 1043.979154)"><g><path d="M 8.359375 0 L 3.125 0 L 3.125 -28.03125 L 8.359375 -28.03125 Z M 8.359375 0 "/></g></g></g><g fill="#ccd6f6" fill-opacity="1"><g transform="translate(529.403848, 1043.979154)"><g><path d="M 29.84375 -14.015625 C 29.84375 -11.960938 29.503906 -10.054688 28.828125 -8.296875 C 28.148438 -6.546875 27.191406 -5.03125 25.953125 -3.75 C 24.710938 -2.476562 23.21875 -1.484375 21.46875 -0.765625 C 19.726562 -0.046875 17.789062 0.3125 15.65625 0.3125 C 13.539062 0.3125 11.609375 -0.046875 9.859375 -0.765625 C 8.117188 -1.484375 6.625 -2.476562 5.375 -3.75 C 4.132812 -5.03125 3.171875 -6.546875 2.484375 -8.296875 C 1.796875 -10.054688 1.453125 -11.960938 1.453125 -14.015625 C 1.453125 -16.066406 1.796875 -17.96875 2.484375 -19.71875 C 3.171875 -21.46875 4.132812 -22.984375 5.375 -24.265625 C 6.625 -25.546875 8.117188 -26.546875 9.859375 -27.265625 C 11.609375 -27.984375 13.539062 -28.34375 15.65625 -28.34375 C 17.082031 -28.34375 18.421875 -28.175781 19.671875 -27.84375 C 20.921875 -27.507812 22.066406 -27.039062 23.109375 -26.4375 C 24.160156 -25.84375 25.101562 -25.113281 25.9375 -24.25 C 26.769531 -23.394531 27.476562 -22.4375 28.0625 -21.375 C 28.644531 -20.320312 29.085938 -19.171875 29.390625 -17.921875 C 29.691406 -16.679688 29.84375 -15.378906 29.84375 -14.015625 Z M 24.515625 -14.015625 C 24.515625 -15.546875 24.304688 -16.921875 23.890625 -18.140625 C 23.484375 -19.367188 22.894531 -20.410156 22.125 -21.265625 C 21.363281 -22.117188 20.4375 -22.769531 19.34375 -23.21875 C 18.257812 -23.675781 17.03125 -23.90625 15.65625 -23.90625 C 14.289062 -23.90625 13.0625 -23.675781 11.96875 -23.21875 C 10.875 -22.769531 9.941406 -22.117188 9.171875 -21.265625 C 8.410156 -20.410156 7.820312 -19.367188 7.40625 -18.140625 C 6.988281 -16.921875 6.78125 -15.546875 6.78125 -14.015625 C 6.78125 -12.472656 6.988281 -11.09375 7.40625 -9.875 C 7.820312 -8.65625 8.410156 -7.617188 9.171875 -6.765625 C 9.941406 -5.921875 10.875 -5.269531 11.96875 -4.8125 C 13.0625 -4.363281 14.289062 -4.140625 15.65625 -4.140625 C 17.03125 -4.140625 18.257812 -4.363281 19.34375 -4.8125 C 20.4375 -5.269531 21.363281 -5.921875 22.125 -6.765625 C 22.894531 -7.617188 23.484375 -8.65625 23.890625 -9.875 C 24.304688 -11.09375 24.515625 -12.472656 24.515625 -14.015625 Z M 24.515625 -14.015625 "/></g></g></g><g fill="#ccd6f6" fill-opacity="1"><g transform="translate(586.262852, 1043.979154)"><g><path d="M 26.75 -28.03125 L 26.75 0 L 24.078125 0 C 23.660156 0 23.3125 -0.0664062 23.03125 -0.203125 C 22.757812 -0.335938 22.492188 -0.566406 22.234375 -0.890625 L 7.59375 -19.578125 C 7.675781 -18.722656 7.71875 -17.9375 7.71875 -17.21875 L 7.71875 0 L 3.125 0 L 3.125 -28.03125 L 5.859375 -28.03125 C 6.078125 -28.03125 6.265625 -28.019531 6.421875 -28 C 6.585938 -27.976562 6.726562 -27.9375 6.84375 -27.875 C 6.96875 -27.820312 7.085938 -27.738281 7.203125 -27.625 C 7.328125 -27.519531 7.457031 -27.375 7.59375 -27.1875 L 22.296875 -8.4375 C 22.253906 -8.882812 22.21875 -9.328125 22.1875 -9.765625 C 22.164062 -10.203125 22.15625 -10.609375 22.15625 -10.984375 L 22.15625 -28.03125 Z M 26.75 -28.03125 "/></g></g></g><g fill="#ccd6f6" fill-opacity="1"><g transform="translate(641.668594, 1043.979154)"><g/></g></g><g fill="#ccd6f6" fill-opacity="1"><g transform="translate(676.631619, 1043.979154)"><g><path d="M 6.796875 -14.015625 C 6.796875 -12.472656 7.003906 -11.09375 7.421875 -9.875 C 7.835938 -8.65625 8.425781 -7.617188 9.1875 -6.765625 C 9.957031 -5.921875 10.890625 -5.269531 11.984375 -4.8125 C 13.078125 -4.363281 14.3125 -4.140625 15.6875 -4.140625 C 17.050781 -4.140625 18.28125 -4.363281 19.375 -4.8125 C 20.46875 -5.269531 21.394531 -5.921875 22.15625 -6.765625 C 22.914062 -7.617188 23.5 -8.65625 23.90625 -9.875 C 24.320312 -11.09375 24.53125 -12.472656 24.53125 -14.015625 C 24.53125 -15.546875 24.320312 -16.921875 23.90625 -18.140625 C 23.5 -19.367188 22.914062 -20.410156 22.15625 -21.265625 C 21.394531 -22.117188 20.46875 -22.769531 19.375 -23.21875 C 18.28125 -23.675781 17.050781 -23.90625 15.6875 -23.90625 C 14.3125 -23.90625 13.078125 -23.675781 11.984375 -23.21875 C 10.890625 -22.769531 9.957031 -22.117188 9.1875 -21.265625 C 8.425781 -20.410156 7.835938 -19.367188 7.421875 -18.140625 C 7.003906 -16.921875 6.796875 -15.546875 6.796875 -14.015625 Z M 31.328125 5.484375 L 27.015625 5.484375 C 26.398438 5.484375 25.84375 5.398438 25.34375 5.234375 C 24.84375 5.066406 24.382812 4.753906 23.96875 4.296875 L 19.875 -0.234375 C 19.207031 -0.0546875 18.53125 0.078125 17.84375 0.171875 C 17.15625 0.265625 16.4375 0.3125 15.6875 0.3125 C 13.5625 0.3125 11.625 -0.046875 9.875 -0.765625 C 8.132812 -1.484375 6.640625 -2.476562 5.390625 -3.75 C 4.148438 -5.03125 3.1875 -6.546875 2.5 -8.296875 C 1.8125 -10.054688 1.46875 -11.960938 1.46875 -14.015625 C 1.46875 -16.066406 1.8125 -17.96875 2.5 -19.71875 C 3.1875 -21.46875 4.148438 -22.984375 5.390625 -24.265625 C 6.640625 -25.546875 8.132812 -26.546875 9.875 -27.265625 C 11.625 -27.984375 13.5625 -28.34375 15.6875 -28.34375 C 17.101562 -28.34375 18.4375 -28.175781 19.6875 -27.84375 C 20.945312 -27.507812 22.097656 -27.039062 23.140625 -26.4375 C 24.191406 -25.84375 25.132812 -25.113281 25.96875 -24.25 C 26.800781 -23.394531 27.503906 -22.4375 28.078125 -21.375 C 28.660156 -20.320312 29.101562 -19.171875 29.40625 -17.921875 C 29.71875 -16.679688 29.875 -15.378906 29.875 -14.015625 C 29.875 -12.765625 29.742188 -11.566406 29.484375 -10.421875 C 29.222656 -9.273438 28.847656 -8.203125 28.359375 -7.203125 C 27.878906 -6.210938 27.289062 -5.300781 26.59375 -4.46875 C 25.894531 -3.632812 25.097656 -2.898438 24.203125 -2.265625 Z M 31.328125 5.484375 "/></g></g></g><g fill="#ccd6f6" fill-opacity="1"><g transform="translate(733.490623, 1043.979154)"><g><path d="M 14.40625 -4.203125 C 15.40625 -4.203125 16.300781 -4.367188 17.09375 -4.703125 C 17.894531 -5.046875 18.566406 -5.519531 19.109375 -6.125 C 19.648438 -6.726562 20.066406 -7.460938 20.359375 -8.328125 C 20.648438 -9.203125 20.796875 -10.171875 20.796875 -11.234375 L 20.796875 -28.03125 L 26.015625 -28.03125 L 26.015625 -11.234375 C 26.015625 -9.566406 25.742188 -8.023438 25.203125 -6.609375 C 24.671875 -5.203125 23.90625 -3.984375 22.90625 -2.953125 C 21.90625 -1.929688 20.6875 -1.128906 19.25 -0.546875 C 17.8125 0.0234375 16.195312 0.3125 14.40625 0.3125 C 12.59375 0.3125 10.96875 0.0234375 9.53125 -0.546875 C 8.101562 -1.128906 6.882812 -1.929688 5.875 -2.953125 C 4.875 -3.984375 4.101562 -5.203125 3.5625 -6.609375 C 3.03125 -8.023438 2.765625 -9.566406 2.765625 -11.234375 L 2.765625 -28.03125 L 7.984375 -28.03125 L 7.984375 -11.265625 C 7.984375 -10.191406 8.128906 -9.222656 8.421875 -8.359375 C 8.710938 -7.492188 9.128906 -6.753906 9.671875 -6.140625 C 10.222656 -5.523438 10.894531 -5.046875 11.6875 -4.703125 C 12.488281 -4.367188 13.394531 -4.203125 14.40625 -4.203125 Z M 14.40625 -4.203125 "/></g></g></g><g fill="#ccd6f6" fill-opacity="1"><g transform="translate(787.811281, 1043.979154)"><g><path d="M 8.359375 -23.875 L 8.359375 -16.109375 L 18.15625 -16.109375 L 18.15625 -12.09375 L 8.359375 -12.09375 L 8.359375 -4.171875 L 20.796875 -4.171875 L 20.796875 0 L 3.125 0 L 3.125 -28.03125 L 20.796875 -28.03125 L 20.796875 -23.875 Z M 8.359375 -23.875 "/></g></g></g><g fill="#ccd6f6" fill-opacity="1"><g transform="translate(835.640623, 1043.979154)"><g/></g></g><g fill="#ccd6f6" fill-opacity="1"><g transform="translate(870.603603, 1043.979154)"><g><path d="M 22.703125 -23.75 L 14.25 -23.75 L 14.25 0 L 9.03125 0 L 9.03125 -23.75 L 0.578125 -23.75 L 0.578125 -28.03125 L 22.703125 -28.03125 Z M 22.703125 -23.75 "/></g></g></g><g fill="#ccd6f6" fill-opacity="1"><g transform="translate(919.401847, 1043.979154)"><g><path d="M 11.59375 -14.6875 C 12.570312 -14.6875 13.425781 -14.804688 14.15625 -15.046875 C 14.882812 -15.296875 15.484375 -15.640625 15.953125 -16.078125 C 16.429688 -16.515625 16.785156 -17.03125 17.015625 -17.625 C 17.242188 -18.21875 17.359375 -18.867188 17.359375 -19.578125 C 17.359375 -20.992188 16.890625 -22.082031 15.953125 -22.84375 C 15.023438 -23.613281 13.597656 -24 11.671875 -24 L 8.328125 -24 L 8.328125 -14.6875 Z M 25 0 L 20.296875 0 C 19.398438 0 18.753906 -0.347656 18.359375 -1.046875 L 12.46875 -10.015625 C 12.25 -10.359375 12.003906 -10.597656 11.734375 -10.734375 C 11.472656 -10.878906 11.082031 -10.953125 10.5625 -10.953125 L 8.328125 -10.953125 L 8.328125 0 L 3.125 0 L 3.125 -28.03125 L 11.671875 -28.03125 C 13.566406 -28.03125 15.195312 -27.832031 16.5625 -27.4375 C 17.925781 -27.039062 19.039062 -26.488281 19.90625 -25.78125 C 20.78125 -25.070312 21.425781 -24.222656 21.84375 -23.234375 C 22.257812 -22.242188 22.46875 -21.15625 22.46875 -19.96875 C 22.46875 -19.019531 22.328125 -18.125 22.046875 -17.28125 C 21.765625 -16.445312 21.363281 -15.6875 20.84375 -15 C 20.320312 -14.3125 19.675781 -13.707031 18.90625 -13.1875 C 18.132812 -12.675781 17.257812 -12.273438 16.28125 -11.984375 C 16.613281 -11.785156 16.921875 -11.550781 17.203125 -11.28125 C 17.492188 -11.019531 17.753906 -10.707031 17.984375 -10.34375 Z M 25 0 "/></g></g></g><g fill="#ccd6f6" fill-opacity="1"><g transform="translate(969.866442, 1043.979154)"><g><path d="M 17.921875 -10.578125 L 14.515625 -19.90625 C 14.347656 -20.320312 14.171875 -20.8125 13.984375 -21.375 C 13.804688 -21.945312 13.628906 -22.5625 13.453125 -23.21875 C 13.285156 -22.5625 13.109375 -21.941406 12.921875 -21.359375 C 12.742188 -20.785156 12.570312 -20.289062 12.40625 -19.875 L 9.015625 -10.578125 Z M 27.140625 0 L 23.109375 0 C 22.648438 0 22.28125 -0.109375 22 -0.328125 C 21.71875 -0.554688 21.503906 -0.84375 21.359375 -1.1875 L 19.265625 -6.90625 L 7.65625 -6.90625 L 5.5625 -1.1875 C 5.457031 -0.882812 5.253906 -0.609375 4.953125 -0.359375 C 4.660156 -0.117188 4.296875 0 3.859375 0 L -0.21875 0 L 10.8125 -28.03125 L 16.125 -28.03125 Z M 27.140625 0 "/></g></g></g><g fill="#ccd6f6" fill-opacity="1"><g transform="translate(1022.326887, 1043.979154)"><g><path d="M 26.75 -28.03125 L 26.75 0 L 24.078125 0 C 23.660156 0 23.3125 -0.0664062 23.03125 -0.203125 C 22.757812 -0.335938 22.492188 -0.566406 22.234375 -0.890625 L 7.59375 -19.578125 C 7.675781 -18.722656 7.71875 -17.9375 7.71875 -17.21875 L 7.71875 0 L 3.125 0 L 3.125 -28.03125 L 5.859375 -28.03125 C 6.078125 -28.03125 6.265625 -28.019531 6.421875 -28 C 6.585938 -27.976562 6.726562 -27.9375 6.84375 -27.875 C 6.96875 -27.820312 7.085938 -27.738281 7.203125 -27.625 C 7.328125 -27.519531 7.457031 -27.375 7.59375 -27.1875 L 22.296875 -8.4375 C 22.253906 -8.882812 22.21875 -9.328125 22.1875 -9.765625 C 22.164062 -10.203125 22.15625 -10.609375 22.15625 -10.984375 L 22.15625 -28.03125 Z M 26.75 -28.03125 "/></g></g></g><g fill="#ccd6f6" fill-opacity="1"><g transform="translate(1077.732583, 1043.979154)"><g><path d="M 18.046875 -22.9375 C 17.890625 -22.65625 17.722656 -22.453125 17.546875 -22.328125 C 17.378906 -22.210938 17.164062 -22.15625 16.90625 -22.15625 C 16.632812 -22.15625 16.335938 -22.253906 16.015625 -22.453125 C 15.703125 -22.648438 15.328125 -22.867188 14.890625 -23.109375 C 14.453125 -23.359375 13.9375 -23.582031 13.34375 -23.78125 C 12.757812 -23.988281 12.066406 -24.09375 11.265625 -24.09375 C 10.535156 -24.09375 9.898438 -24.003906 9.359375 -23.828125 C 8.816406 -23.648438 8.359375 -23.40625 7.984375 -23.09375 C 7.617188 -22.789062 7.347656 -22.421875 7.171875 -21.984375 C 6.992188 -21.554688 6.90625 -21.082031 6.90625 -20.5625 C 6.90625 -19.90625 7.085938 -19.359375 7.453125 -18.921875 C 7.816406 -18.484375 8.300781 -18.109375 8.90625 -17.796875 C 9.519531 -17.484375 10.210938 -17.203125 10.984375 -16.953125 C 11.765625 -16.710938 12.5625 -16.453125 13.375 -16.171875 C 14.1875 -15.898438 14.976562 -15.578125 15.75 -15.203125 C 16.53125 -14.835938 17.222656 -14.375 17.828125 -13.8125 C 18.441406 -13.25 18.929688 -12.5625 19.296875 -11.75 C 19.660156 -10.9375 19.84375 -9.945312 19.84375 -8.78125 C 19.84375 -7.507812 19.625 -6.320312 19.1875 -5.21875 C 18.757812 -4.113281 18.128906 -3.148438 17.296875 -2.328125 C 16.460938 -1.515625 15.441406 -0.867188 14.234375 -0.390625 C 13.035156 0.078125 11.664062 0.3125 10.125 0.3125 C 9.226562 0.3125 8.347656 0.222656 7.484375 0.046875 C 6.617188 -0.128906 5.785156 -0.378906 4.984375 -0.703125 C 4.191406 -1.023438 3.445312 -1.410156 2.75 -1.859375 C 2.050781 -2.316406 1.429688 -2.820312 0.890625 -3.375 L 2.421875 -5.875 C 2.546875 -6.050781 2.710938 -6.203125 2.921875 -6.328125 C 3.128906 -6.453125 3.347656 -6.515625 3.578125 -6.515625 C 3.910156 -6.515625 4.257812 -6.378906 4.625 -6.109375 C 5 -5.847656 5.445312 -5.554688 5.96875 -5.234375 C 6.488281 -4.910156 7.09375 -4.613281 7.78125 -4.34375 C 8.46875 -4.082031 9.296875 -3.953125 10.265625 -3.953125 C 11.753906 -3.953125 12.90625 -4.300781 13.71875 -5 C 14.53125 -5.707031 14.9375 -6.722656 14.9375 -8.046875 C 14.9375 -8.785156 14.753906 -9.382812 14.390625 -9.84375 C 14.023438 -10.3125 13.535156 -10.703125 12.921875 -11.015625 C 12.316406 -11.335938 11.625 -11.609375 10.84375 -11.828125 C 10.070312 -12.046875 9.285156 -12.28125 8.484375 -12.53125 C 7.679688 -12.789062 6.894531 -13.101562 6.125 -13.46875 C 5.351562 -13.832031 4.660156 -14.304688 4.046875 -14.890625 C 3.441406 -15.472656 2.953125 -16.195312 2.578125 -17.0625 C 2.210938 -17.9375 2.03125 -19.015625 2.03125 -20.296875 C 2.03125 -21.316406 2.234375 -22.3125 2.640625 -23.28125 C 3.046875 -24.25 3.632812 -25.109375 4.40625 -25.859375 C 5.1875 -26.609375 6.144531 -27.207031 7.28125 -27.65625 C 8.425781 -28.113281 9.734375 -28.34375 11.203125 -28.34375 C 12.859375 -28.34375 14.382812 -28.082031 15.78125 -27.5625 C 17.175781 -27.039062 18.363281 -26.316406 19.34375 -25.390625 Z M 18.046875 -22.9375 "/></g></g></g><g fill="#ccd6f6" fill-opacity="1"><g transform="translate(1124.534978, 1043.979154)"><g><path d="M 8.359375 -23.875 L 8.359375 -15.578125 L 18.859375 -15.578125 L 18.859375 -11.421875 L 8.359375 -11.421875 L 8.359375 0 L 3.125 0 L 3.125 -28.03125 L 20.796875 -28.03125 L 20.796875 -23.875 Z M 8.359375 -23.875 "/></g></g></g><g fill="#ccd6f6" fill-opacity="1"><g transform="translate(1172.015503, 1043.979154)"><g><path d="M 29.84375 -14.015625 C 29.84375 -11.960938 29.503906 -10.054688 28.828125 -8.296875 C 28.148438 -6.546875 27.191406 -5.03125 25.953125 -3.75 C 24.710938 -2.476562 23.21875 -1.484375 21.46875 -0.765625 C 19.726562 -0.046875 17.789062 0.3125 15.65625 0.3125 C 13.539062 0.3125 11.609375 -0.046875 9.859375 -0.765625 C 8.117188 -1.484375 6.625 -2.476562 5.375 -3.75 C 4.132812 -5.03125 3.171875 -6.546875 2.484375 -8.296875 C 1.796875 -10.054688 1.453125 -11.960938 1.453125 -14.015625 C 1.453125 -16.066406 1.796875 -17.96875 2.484375 -19.71875 C 3.171875 -21.46875 4.132812 -22.984375 5.375 -24.265625 C 6.625 -25.546875 8.117188 -26.546875 9.859375 -27.265625 C 11.609375 -27.984375 13.539062 -28.34375 15.65625 -28.34375 C 17.082031 -28.34375 18.421875 -28.175781 19.671875 -27.84375 C 20.921875 -27.507812 22.066406 -27.039062 23.109375 -26.4375 C 24.160156 -25.84375 25.101562 -25.113281 25.9375 -24.25 C 26.769531 -23.394531 27.476562 -22.4375 28.0625 -21.375 C 28.644531 -20.320312 29.085938 -19.171875 29.390625 -17.921875 C 29.691406 -16.679688 29.84375 -15.378906 29.84375 -14.015625 Z M 24.515625 -14.015625 C 24.515625 -15.546875 24.304688 -16.921875 23.890625 -18.140625 C 23.484375 -19.367188 22.894531 -20.410156 22.125 -21.265625 C 21.363281 -22.117188 20.4375 -22.769531 19.34375 -23.21875 C 18.257812 -23.675781 17.03125 -23.90625 15.65625 -23.90625 C 14.289062 -23.90625 13.0625 -23.675781 11.96875 -23.21875 C 10.875 -22.769531 9.941406 -22.117188 9.171875 -21.265625 C 8.410156 -20.410156 7.820312 -19.367188 7.40625 -18.140625 C 6.988281 -16.921875 6.78125 -15.546875 6.78125 -14.015625 C 6.78125 -12.472656 6.988281 -11.09375 7.40625 -9.875 C 7.820312 -8.65625 8.410156 -7.617188 9.171875 -6.765625 C 9.941406 -5.921875 10.875 -5.269531 11.96875 -4.8125 C 13.0625 -4.363281 14.289062 -4.140625 15.65625 -4.140625 C 17.03125 -4.140625 18.257812 -4.363281 19.34375 -4.8125 C 20.4375 -5.269531 21.363281 -5.921875 22.125 -6.765625 C 22.894531 -7.617188 23.484375 -8.65625 23.890625 -9.875 C 24.304688 -11.09375 24.515625 -12.472656 24.515625 -14.015625 Z M 24.515625 -14.015625 "/></g></g></g><g fill="#ccd6f6" fill-opacity="1"><g transform="translate(1228.874508, 1043.979154)"><g><path d="M 11.59375 -14.6875 C 12.570312 -14.6875 13.425781 -14.804688 14.15625 -15.046875 C 14.882812 -15.296875 15.484375 -15.640625 15.953125 -16.078125 C 16.429688 -16.515625 16.785156 -17.03125 17.015625 -17.625 C 17.242188 -18.21875 17.359375 -18.867188 17.359375 -19.578125 C 17.359375 -20.992188 16.890625 -22.082031 15.953125 -22.84375 C 15.023438 -23.613281 13.597656 -24 11.671875 -24 L 8.328125 -24 L 8.328125 -14.6875 Z M 25 0 L 20.296875 0 C 19.398438 0 18.753906 -0.347656 18.359375 -1.046875 L 12.46875 -10.015625 C 12.25 -10.359375 12.003906 -10.597656 11.734375 -10.734375 C 11.472656 -10.878906 11.082031 -10.953125 10.5625 -10.953125 L 8.328125 -10.953125 L 8.328125 0 L 3.125 0 L 3.125 -28.03125 L 11.671875 -28.03125 C 13.566406 -28.03125 15.195312 -27.832031 16.5625 -27.4375 C 17.925781 -27.039062 19.039062 -26.488281 19.90625 -25.78125 C 20.78125 -25.070312 21.425781 -24.222656 21.84375 -23.234375 C 22.257812 -22.242188 22.46875 -21.15625 22.46875 -19.96875 C 22.46875 -19.019531 22.328125 -18.125 22.046875 -17.28125 C 21.765625 -16.445312 21.363281 -15.6875 20.84375 -15 C 20.320312 -14.3125 19.675781 -13.707031 18.90625 -13.1875 C 18.132812 -12.675781 17.257812 -12.273438 16.28125 -11.984375 C 16.613281 -11.785156 16.921875 -11.550781 17.203125 -11.28125 C 17.492188 -11.019531 17.753906 -10.707031 17.984375 -10.34375 Z M 25 0 "/></g></g></g><g fill="#ccd6f6" fill-opacity="1"><g transform="translate(1279.339103, 1043.979154)"><g><path d="M 33.515625 -28.03125 L 33.515625 0 L 28.921875 0 L 28.921875 -18.109375 C 28.921875 -18.828125 28.957031 -19.609375 29.03125 -20.453125 L 20.5625 -4.53125 C 20.164062 -3.769531 19.550781 -3.390625 18.71875 -3.390625 L 17.984375 -3.390625 C 17.160156 -3.390625 16.546875 -3.769531 16.140625 -4.53125 L 7.578125 -20.5 C 7.617188 -20.082031 7.648438 -19.664062 7.671875 -19.25 C 7.703125 -18.832031 7.71875 -18.453125 7.71875 -18.109375 L 7.71875 0 L 3.125 0 L 3.125 -28.03125 L 7.0625 -28.03125 C 7.289062 -28.03125 7.488281 -28.019531 7.65625 -28 C 7.820312 -27.988281 7.972656 -27.957031 8.109375 -27.90625 C 8.242188 -27.851562 8.363281 -27.769531 8.46875 -27.65625 C 8.582031 -27.539062 8.691406 -27.382812 8.796875 -27.1875 L 17.1875 -11.625 C 17.40625 -11.21875 17.609375 -10.789062 17.796875 -10.34375 C 17.984375 -9.90625 18.171875 -9.457031 18.359375 -9 C 18.535156 -9.46875 18.71875 -9.925781 18.90625 -10.375 C 19.101562 -10.820312 19.3125 -11.253906 19.53125 -11.671875 L 27.8125 -27.1875 C 27.914062 -27.382812 28.023438 -27.539062 28.140625 -27.65625 C 28.253906 -27.769531 28.378906 -27.851562 28.515625 -27.90625 C 28.648438 -27.957031 28.800781 -27.988281 28.96875 -28 C 29.144531 -28.019531 29.347656 -28.03125 29.578125 -28.03125 Z M 33.515625 -28.03125 "/></g></g></g><g fill="#ccd6f6" fill-opacity="1"><g transform="translate(1341.507432, 1043.979154)"><g><path d="M 17.921875 -10.578125 L 14.515625 -19.90625 C 14.347656 -20.320312 14.171875 -20.8125 13.984375 -21.375 C 13.804688 -21.945312 13.628906 -22.5625 13.453125 -23.21875 C 13.285156 -22.5625 13.109375 -21.941406 12.921875 -21.359375 C 12.742188 -20.785156 12.570312 -20.289062 12.40625 -19.875 L 9.015625 -10.578125 Z M 27.140625 0 L 23.109375 0 C 22.648438 0 22.28125 -0.109375 22 -0.328125 C 21.71875 -0.554688 21.503906 -0.84375 21.359375 -1.1875 L 19.265625 -6.90625 L 7.65625 -6.90625 L 5.5625 -1.1875 C 5.457031 -0.882812 5.253906 -0.609375 4.953125 -0.359375 C 4.660156 -0.117188 4.296875 0 3.859375 0 L -0.21875 0 L 10.8125 -28.03125 L 16.125 -28.03125 Z M 27.140625 0 "/></g></g></g></svg>